<?xml version="1.0" encoding="UTF-8" standalone="no"?>
<!-- License Agreement at http://iconmonstr.com/license/ -->

<svg
   xmlns:dc="http://purl.org/dc/elements/1.1/"
   xmlns:cc="http://creativecommons.org/ns#"
   xmlns:rdf="http://www.w3.org/1999/02/22-rdf-syntax-ns#"
   xmlns:svg="http://www.w3.org/2000/svg"
   xmlns="http://www.w3.org/2000/svg"
   xmlns:sodipodi="http://sodipodi.sourceforge.net/DTD/sodipodi-0.dtd"
   xmlns:inkscape="http://www.inkscape.org/namespaces/inkscape"
   version="1.1"
   x="0px"
   y="0px"
   width="412"
   height="401.83344"
   viewBox="0 0 412 401.83344"
   xml:space="preserve"
   id="svg4183"
   inkscape:version="0.91 r13725"
   sodipodi:docname="github.svg"><metadata
     id="metadata4190"><rdf:RDF><cc:Work
         rdf:about=""><dc:format>image/svg+xml</dc:format><dc:type
           rdf:resource="http://purl.org/dc/dcmitype/StillImage" /><dc:title /></cc:Work></rdf:RDF></metadata><defs
     id="defs4188" /><sodipodi:namedview
     pagecolor="#ffffff"
     bordercolor="#666666"
     borderopacity="1"
     objecttolerance="10"
     gridtolerance="10"
     guidetolerance="10"
     inkscape:pageopacity="0"
     inkscape:pageshadow="2"
     inkscape:window-width="1440"
     inkscape:window-height="852"
     id="namedview4186"
     showgrid="false"
     fit-margin-top="0"
     fit-margin-left="0"
     fit-margin-right="0"
     fit-margin-bottom="0"
     inkscape:zoom="1.2714844"
     inkscape:cx="206"
     inkscape:cy="200.91643"
     inkscape:window-x="0"
     inkscape:window-y="0"
     inkscape:window-maximized="1"
     inkscape:current-layer="svg4183" /><path
     id="github-icon"
     d="M 206,0 C 92.236,0 0,92.237 0,206 c 0,91.013 59.025,168.246 140.887,195.472 10.293,1.911 13.613,-4.459 13.613,-9.908 l 0,-38.356 C 97.199,365.681 85.262,328.917 85.262,328.917 75.908,305.095 62.397,298.758 62.397,298.758 c -18.693,-12.774 1.408,-12.523 1.408,-12.523 20.688,1.459 31.584,21.24 31.584,21.24 18.373,31.483 48.18,22.381 59.949,17.117 1.844,-13.312 7.174,-22.397 13.076,-27.544 -45.768,-5.197 -93.848,-22.867 -93.848,-101.81 0,-22.498 8.047,-40.872 21.225,-55.289 -2.146,-5.197 -9.188,-26.152 1.979,-54.518 0,0 17.301,-5.532 56.662,21.123 16.445,-4.56 34.066,-6.856 51.568,-6.94 17.502,0.084 35.154,2.381 51.6,6.94 39.33,-26.655 56.596,-21.123 56.596,-21.123 11.217,28.365 4.158,49.32 2.029,54.518 13.211,14.417 21.207,32.791 21.207,55.289 0,79.127 -48.197,96.545 -94.064,101.642 7.375,6.388 14.133,18.943 14.133,38.155 0,27.561 0,49.757 0,56.529 0,5.482 3.301,11.903 13.746,9.892 C 353.057,374.181 412,296.997 412,206.001 412,92.238 319.762,0 206,0 Z"
     style="fill:#ffffff;fill-opacity:1"
     inkscape:connector-curvature="0" /></svg>