<?xml version="1.0" encoding="UTF-8" standalone="no"?>
<svg
   xmlns:dc="http://purl.org/dc/elements/1.1/"
   xmlns:cc="http://creativecommons.org/ns#"
   xmlns:rdf="http://www.w3.org/1999/02/22-rdf-syntax-ns#"
   xmlns:svg="http://www.w3.org/2000/svg"
   xmlns="http://www.w3.org/2000/svg"
   xmlns:sodipodi="http://sodipodi.sourceforge.net/DTD/sodipodi-0.dtd"
   xmlns:inkscape="http://www.inkscape.org/namespaces/inkscape"
   viewBox="0 0 686.59943 421.0448"
   id="svg3403"
   version="1.1"
   inkscape:version="0.91 r13725"
   sodipodi:docname="angularConnect.svg"
   width="686.59943"
   height="421.0448">
  <metadata
     id="metadata3421">
    <rdf:RDF>
      <cc:Work
         rdf:about="">
        <dc:format>image/svg+xml</dc:format>
        <dc:type
           rdf:resource="http://purl.org/dc/dcmitype/StillImage" />
        <dc:title></dc:title>
      </cc:Work>
    </rdf:RDF>
  </metadata>
  <defs
     id="defs3419">
    <inkscape:perspective
       sodipodi:type="inkscape:persp3d"
       inkscape:vp_x="0 : 127 : 1"
       inkscape:vp_y="0 : 1000 : 0"
       inkscape:vp_z="336 : 127 : 1"
       inkscape:persp3d-origin="168 : 84.666667 : 1"
       id="perspective3423" />
  </defs>
  <sodipodi:namedview
     pagecolor="#ffffff"
     bordercolor="#666666"
     borderopacity="1"
     objecttolerance="10"
     gridtolerance="10"
     guidetolerance="10"
     inkscape:pageopacity="0"
     inkscape:pageshadow="2"
     inkscape:window-width="1186"
     inkscape:window-height="780"
     id="namedview3417"
     showgrid="false"
     fit-margin-top="0"
     fit-margin-left="0"
     fit-margin-right="0"
     fit-margin-bottom="0"
     inkscape:zoom="0.83333333"
     inkscape:cx="93.910461"
     inkscape:cy="-134.31115"
     inkscape:window-x="0"
     inkscape:window-y="0"
     inkscape:window-maximized="0"
     inkscape:current-layer="g3405" />
  <g
     id="g3405"
     style="fill:#000000"
     transform="translate(-269.08954,-52.008036)">
    <path
       d="m 464.55527,472.2975 c -6.86473,-2.1148 -53.34342,-26.73843 -121.89398,-64.57784 -38.67999,-21.34803 -41.04829,-22.94914 -43.66342,-29.48698 -1.27421,-3.18219 -4.98677,-29.82722 -9.69334,-69.58127 -4.19623,-35.42441 -10.73073,-90.3756 -14.52334,-122.10747 -7.4985,-62.74322 -7.49183,-61.87596 -0.54705,-68.24702 4.08282,-3.73591 181.91534,-64.911388 191.87553,-66.012146 8.24903,-0.900621 4.6799,-2.001379 123.4951,38.793394 l 65.96544,22.648942 9.11628,-5.93743 c 42.8095,-27.952589 99.04158,-37.559208 148.14875,-25.284084 89.42828,22.315374 150.40362,107.173844 142.0979,197.836304 -4.13618,45.26452 -20.91441,82.45681 -51.56886,114.34545 -19.51345,20.314 -44.26383,36.75866 -69.91484,46.46536 -37.65928,14.24313 -86.19271,15.17711 -124.81933,2.40164 -27.05198,-8.97285 -56.07197,-26.98526 -75.18514,-46.66548 -3.13549,-3.2022 -6.13756,-5.83736 -6.73798,-5.83736 -0.56705,0 -18.04576,9.37313 -38.79338,20.78099 -20.74764,11.44122 -49.73427,27.21875 -64.41105,35.1242 -47.36598,25.45086 -52.30271,27.58567 -59.07404,25.48422 z m 31.62179,-36.1816 c 23.07257,-12.17506 121.90399,-66.17893 122.83797,-67.11291 0.16678,-0.16678 2.36162,-18.57947 4.88003,-40.9282 2.52173,-22.34873 8.57924,-73.48397 13.46594,-113.64496 4.88337,-40.16101 9.01288,-74.65145 9.17299,-76.61946 l 0.29354,-3.60249 -86.72643,-29.72047 C 512.40158,88.142813 471.44001,74.766931 469.10508,74.766931 c -2.33494,0 -27.61904,7.938802 -56.13869,17.645487 -58.80718,20.013792 -121.15013,41.662042 -121.68383,42.295812 -0.20014,0.2335 5.87071,52.40277 13.44259,115.97991 7.57189,63.57714 13.80952,116.18005 13.80952,116.94724 0.0333,0.76719 20.48077,12.57533 45.4313,26.28477 46.53205,25.51759 103.4713,56.4389 104.30519,56.67239 0.26685,0.0667 12.84219,-6.40442 27.9526,-14.37658 z m 310.67071,-10.07361 c 32.12214,-8.40579 56.89587,-22.71566 78.92105,-45.59808 19.02644,-19.74694 30.3876,-38.02621 38.97685,-62.70988 6.83805,-19.71358 8.90614,-34.85735 8.03888,-59.27417 -0.80056,-22.6823 -2.50172,-31.88863 -9.10628,-49.53413 -20.91441,-55.80511 -67.81339,-95.66591 -125.92009,-107.00706 -16.57809,-3.202205 -45.39795,-2.935359 -62.34296,0.63377 -27.21874,5.73729 -61.70918,22.21531 -65.07816,31.08809 -1.23419,3.2022 -11.70807,87.59368 -22.31538,179.89061 l -6.80469,59.07403 7.20496,7.43846 c 19.48009,20.04714 45.63145,35.99146 72.01629,43.93027 17.412,5.2703 26.68506,6.3377 50.76832,5.90407 19.74693,-0.36692 24.5836,-0.86727 35.55783,-3.73591 z"
       id="path3413"
       style="fill:#ffffff"
       inkscape:connector-curvature="0" />
    <path
       d="m 357.8651,349.36612 c 85.04526,-186.48182 110.48946,-240.9927 111.78702,-239.48833 0.75385,0.87727 48.13317,103.51464 101.30313,219.45119 l 16.31124,35.55784 -18.42603,0.35691 c -10.10697,0.19347 -19.0131,0.12008 -19.74694,-0.16678 -0.73384,-0.28353 -7.03819,-13.15906 -14.00965,-28.61305 l -12.6754,-28.09602 -53.16997,0.32022 -53.16996,0.30021 -12.9089,27.91924 -12.90889,27.91923 -19.88037,0.33357 -19.847,0.33356 7.4051,-16.21117 z m 145.66703,-80.0418 c -0.31355,-0.5237 -7.82539,-17.24522 -16.69484,-37.14894 -8.8661,-19.88036 -16.55807,-36.62523 -17.0951,-37.19229 -0.81057,-0.83391 -34.37036,71.88286 -34.37036,74.48466 0,0.46699 15.464,0.86726 34.36368,0.86726 18.90302,0 34.11017,-0.43363 33.79662,-0.93397 z m 256.33661,95.3657 c -29.38692,-6.30435 -56.15536,-27.28547 -69.21435,-54.26072 -7.46515,-15.41062 -10.17368,-27.55232 -10.16367,-45.49801 0.01,-16.74487 3.33563,-30.88796 10.97422,-46.63213 4.97677,-10.27375 7.55855,-13.70945 18.04577,-24.25005 21.76166,-21.81502 42.7628,-30.45431 74.2445,-30.52103 23.98318,-0.0333 43.16306,6.8047 62.87664,22.38209 5.73729,4.53646 10.40718,8.67265 10.40718,9.20635 0,0.5337 -5.00345,5.97078 -11.14101,12.07498 l -11.14102,11.10766 -12.4419,-8.20565 c -14.34321,-9.47321 -21.54818,-12.07499 -35.79132,-13.00897 -19.91373,-1.30089 -34.95743,4.53646 -49.46743,19.21324 -13.74279,13.94294 -19.68022,28.68643 -19.68022,48.96707 0.0333,15.74418 2.86865,25.18401 11.608,38.25969 6.27098,9.40649 15.51068,17.54542 25.41751,22.4488 10.14033,5.00345 17.07843,6.60456 28.58637,6.63791 12.04163,0.0667 22.11523,-3.23557 38.45983,-12.60869 l 13.24245,-7.57189 3.30227,2.40166 c 1.83461,1.3009 6.97148,6.13756 11.50794,10.70738 l 8.20566,8.33908 -3.10215,3.33563 c -10.74073,11.47457 -34.39036,24.35012 -51.0018,27.75246 -12.07498,2.46836 -31.72185,2.41833 -43.53,-0.11008 z"
       id="path3415"
       style="fill:#ffffff"
       inkscape:connector-curvature="0" />
  </g>
</svg>
