<?xml version="1.0" encoding="UTF-8" standalone="no"?>
<!-- Created with Inkscape (http://www.inkscape.org/) -->

<svg
   xmlns:dc="http://purl.org/dc/elements/1.1/"
   xmlns:cc="http://creativecommons.org/ns#"
   xmlns:rdf="http://www.w3.org/1999/02/22-rdf-syntax-ns#"
   xmlns:svg="http://www.w3.org/2000/svg"
   xmlns="http://www.w3.org/2000/svg"
   xmlns:sodipodi="http://sodipodi.sourceforge.net/DTD/sodipodi-0.dtd"
   xmlns:inkscape="http://www.inkscape.org/namespaces/inkscape"
   id="svg3355"
   version="1.1"
   inkscape:version="0.91 r13725"
   xml:space="preserve"
   width="444.79874"
   height="272.29431"
   viewBox="0 0 444.79875 272.29431"
   sodipodi:docname="sky.svg"><metadata
     id="metadata3361"><rdf:RDF><cc:Work
         rdf:about=""><dc:format>image/svg+xml</dc:format><dc:type
           rdf:resource="http://purl.org/dc/dcmitype/StillImage" /><dc:title></dc:title></cc:Work></rdf:RDF></metadata><defs
     id="defs3359"><clipPath
       clipPathUnits="userSpaceOnUse"
       id="clipPath3369"><path
         d="m 0,566.929 1133.858,0 L 1133.858,0 0,0 0,566.929 Z"
         id="path3371"
         inkscape:connector-curvature="0" /></clipPath></defs><sodipodi:namedview
     pagecolor="#ffffff"
     bordercolor="#666666"
     borderopacity="1"
     objecttolerance="10"
     gridtolerance="10"
     guidetolerance="10"
     inkscape:pageopacity="0"
     inkscape:pageshadow="2"
     inkscape:window-width="1325"
     inkscape:window-height="796"
     id="namedview3357"
     showgrid="false"
     fit-margin-top="0"
     fit-margin-left="0"
     fit-margin-right="0"
     fit-margin-bottom="0"
     inkscape:zoom="0.80715574"
     inkscape:cx="223.1346"
     inkscape:cy="136.8977"
     inkscape:window-x="0"
     inkscape:window-y="0"
     inkscape:window-maximized="0"
     inkscape:current-layer="g3363" /><g
     id="g3363"
     inkscape:groupmode="layer"
     inkscape:label="Sky Vector Logo Negative AI"
     transform="matrix(1.25,0,0,-1.25,-485.52787,489.72725)"><g
       id="g3365"
       style="fill:#ffffff"><g
         id="g3367"
         clip-path="url(#clipPath3369)"
         style="fill:#ffffff"><g
           id="g3373"
           transform="translate(498.0903,258.2168)"
           style="fill:#ffffff"><path
             d="m 0,0 c 0,-21.157 -13.792,-36.556 -41.846,-39.581 -20.308,-2.173 -49.686,0.379 -63.666,1.986 -0.471,2.265 -0.849,5.099 -0.849,7.366 0,18.42 9.918,22.67 19.269,22.67 9.73,0 25.032,-1.699 36.368,-1.699 12.561,0 16.34,4.25 16.34,8.31 0,5.293 -5.007,7.463 -14.735,9.354 l -26.638,5.102 c -22.105,4.25 -33.911,19.553 -33.911,35.798 0,19.741 13.98,36.273 41.468,39.294 20.78,2.269 46.096,-0.282 59.982,-1.982 0.471,-2.36 0.755,-4.629 0.755,-7.085 0,-18.418 -9.729,-22.387 -19.081,-22.387 -7.179,0 -18.325,1.323 -31.077,1.323 -12.941,0 -18.325,-3.591 -18.325,-7.933 0,-4.629 5.1,-6.518 13.224,-7.936 l 25.409,-4.724 C -11.242,33.061 0,18.229 0,0 m 45.591,-22.67 c 0,-11.335 -4.442,-17.853 -26.545,-17.853 -2.927,0 -5.477,0.19 -7.933,0.564 l 0,150.189 c 0,11.431 3.872,23.335 26.163,23.335 2.834,0 5.668,-0.282 8.315,-0.852 l 0,-155.383 z m 90.345,-58.096 c 2.93,-1.506 8.88,-3.302 16.342,-3.493 12.847,-0.282 19.839,4.628 25.033,16.155 l 68.86,153.587 c -2.833,1.513 -9.161,3.212 -14.263,3.308 -8.878,0.187 -20.781,-1.608 -28.337,-19.744 l -22.291,-52.61 -43.736,71.22 c -2.834,0.852 -9.731,2.077 -14.737,2.077 -15.49,0 -24.086,-5.667 -33.06,-15.394 L 47.242,27.862 81.434,-25.978 c 6.33,-9.822 14.642,-14.828 28.152,-14.828 8.879,0 16.246,2.077 19.645,3.681 l -41.185,62.063 29.189,30.979 47.89,-75.188 -29.189,-61.495 z"
             style="fill:#ffffff;fill-opacity:1;fill-rule:nonzero;stroke:none"
             id="path3375"
             inkscape:connector-curvature="0" /></g></g></g></g></svg>